<svg width="17" height="15" viewBox="0 0 17 15" fill="none" xmlns="http://www.w3.org/2000/svg">
<path d="M15.0763 1.39764C14.2487 0.508103 13.0891 0.00196948 11.8741 9.31749e-05C10.6581 0.0015004 9.49728 0.507366 8.66842 1.39707L8.38594 1.69557L8.10346 1.39707C6.45877 -0.373057 3.69048 -0.474713 1.92039 1.16997C1.84195 1.24288 1.7662 1.3186 1.69329 1.39707C-0.0514086 3.27894 -0.0514086 6.18728 1.69329 8.06915L7.97081 14.6892C8.18799 14.9185 8.54991 14.9283 8.77919 14.7111C8.7867 14.704 8.794 14.6967 8.80111 14.6892L15.0763 8.06915C16.8209 6.18748 16.8209 3.27931 15.0763 1.39764Z" fill="#FCDDEC"/>
</svg>
