<svg width="23" height="23" viewBox="0 0 23 23" fill="none" xmlns="http://www.w3.org/2000/svg">
<path d="M8.12485 12.689C8.12485 12.4009 7.89116 12.1675 7.6028 12.1675H5.78104C5.49302 12.1675 5.25928 12.4009 5.25928 12.689V14.5105C5.25928 14.799 5.49302 15.0325 5.78104 15.0325H7.6028C7.89116 15.0325 8.12485 14.799 8.12485 14.5105V12.689Z" fill="black" fill-opacity="0.5"/>
<path d="M12.6779 12.689C12.6779 12.4009 12.4442 12.1675 12.1564 12.1675H10.3344C10.0464 12.1675 9.81262 12.4009 9.81262 12.689V14.5105C9.81262 14.799 10.0464 15.0325 10.3344 15.0325H12.1564C12.4442 15.0325 12.6779 14.799 12.6779 14.5105V12.689Z" fill="black" fill-opacity="0.5"/>
<path d="M17.2306 12.689C17.2306 12.4009 16.9968 12.1675 16.7088 12.1675H14.887C14.5987 12.1675 14.365 12.4009 14.365 12.689V14.5105C14.365 14.799 14.5987 15.0325 14.887 15.0325H16.7088C16.9968 15.0325 17.2306 14.799 17.2306 14.5105V12.689Z" fill="black" fill-opacity="0.5"/>
<path d="M8.12485 17.242C8.12485 16.9534 7.89116 16.7202 7.6028 16.7202H5.78104C5.49302 16.7202 5.25928 16.9534 5.25928 17.242V19.0632C5.25928 19.3515 5.49302 19.585 5.78104 19.585H7.6028C7.89116 19.585 8.12485 19.3515 8.12485 19.0632V17.242Z" fill="black" fill-opacity="0.5"/>
<path d="M12.6779 17.242C12.6779 16.9534 12.4442 16.7202 12.1564 16.7202H10.3344C10.0464 16.7202 9.81262 16.9534 9.81262 17.242V19.0632C9.81262 19.3515 10.0464 19.585 10.3344 19.585H12.1564C12.4442 19.585 12.6779 19.3515 12.6779 19.0632V17.242Z" fill="black" fill-opacity="0.5"/>
<path d="M17.2306 17.242C17.2306 16.9534 16.9968 16.7202 16.709 16.7202H14.887C14.5987 16.7202 14.365 16.9534 14.365 17.242V19.0632C14.365 19.3515 14.5987 19.585 14.887 19.585H16.709C16.9968 19.585 17.2306 19.3515 17.2306 19.0632V17.242Z" fill="black" fill-opacity="0.5"/>
<path d="M20.4883 2.56077V5.343C20.4883 6.60054 19.4681 7.61392 18.2107 7.61392H16.774C15.5166 7.61392 14.4829 6.60054 14.4829 5.343V2.55078H8.00721V5.343C8.00721 6.60054 6.97357 7.61392 5.71631 7.61392H4.27931C3.022 7.61392 2.00188 6.60054 2.00188 5.343V2.56077C0.902987 2.59389 0 3.50319 0 4.62084V20.926C0 22.0647 0.922917 22.9998 2.06158 22.9998H20.4285C21.5655 22.9998 22.4901 22.0627 22.4901 20.926V4.62084C22.4901 3.50319 21.5872 2.59389 20.4883 2.56077ZM19.821 19.9107C19.821 20.4027 19.422 20.802 18.9297 20.802H3.52115C3.02888 20.802 2.6299 20.4027 2.6299 19.9107V11.4884C2.6299 10.9962 3.02883 10.597 3.52115 10.597H18.9297C19.4219 10.597 19.8209 10.9962 19.8209 11.4884L19.821 19.9107Z" fill="black" fill-opacity="0.5"/>
<path d="M4.27414 6.12255H5.69527C6.12662 6.12255 6.47636 5.77332 6.47636 5.34197V0.780861C6.47636 0.349463 6.12662 0 5.69527 0H4.27414C3.84274 0 3.49304 0.349463 3.49304 0.780861V5.34197C3.49304 5.77332 3.84274 6.12255 4.27414 6.12255Z" fill="black" fill-opacity="0.5"/>
<path d="M16.7558 6.12255H18.177C18.608 6.12255 18.9578 5.77332 18.9578 5.34197V0.780861C18.9578 0.349463 18.6081 0 18.177 0H16.7558C16.3245 0 15.9748 0.349463 15.9748 0.780861V5.34197C15.9748 5.77332 16.3245 6.12255 16.7558 6.12255Z" fill="black" fill-opacity="0.5"/>
</svg>
