<svg width="17" height="17" viewBox="0 0 17 17" fill="none" xmlns="http://www.w3.org/2000/svg">
<rect width="17" height="17" fill="white" fill-opacity="0.2"/>
<path d="M11.7549 1.0498H1.92246C0.862285 1.0498 0 1.91209 0 2.97227V11.5885C0 11.9965 0.46149 12.2266 0.787246 11.9939L3.52551 10.0402C3.75527 9.87652 4.02555 9.78986 4.30777 9.78986H10.3305C11.3907 9.78986 12.2529 8.92758 12.2529 7.8674V1.54785C12.2529 1.27293 12.0298 1.0498 11.7549 1.0498ZM9.33572 7.08315H3.58129C3.30637 7.08315 3.08324 6.86035 3.08324 6.5851C3.08324 6.31018 3.30637 6.08705 3.58129 6.08705H9.33572C9.61065 6.08705 9.83377 6.31018 9.83377 6.5851C9.83377 6.86035 9.61065 7.08315 9.33572 7.08315ZM9.33572 4.75893H3.58129C3.30637 4.75893 3.08324 4.53613 3.08324 4.26088C3.08324 3.98596 3.30637 3.76283 3.58129 3.76283H9.33572C9.61065 3.76283 9.83377 3.98596 9.83377 4.26088C9.83377 4.53613 9.61065 4.75893 9.33572 4.75893Z" fill="#383838"/>
<path d="M16.9999 6.83539V15.4513C16.9999 15.8566 16.5408 16.091 16.2127 15.8567L13.4744 13.9033C13.2447 13.7396 12.9744 13.653 12.6922 13.653H6.66945C5.60928 13.653 4.74699 12.7904 4.74699 11.7302V10.7859H10.3304C11.9398 10.7859 13.249 9.4767 13.249 7.86734V4.9126H15.0775C16.1377 4.9126 16.9999 5.77521 16.9999 6.83539Z" fill="#383838"/>
</svg>
