<svg width="44" height="44" viewBox="0 0 44 44" fill="none" xmlns="http://www.w3.org/2000/svg">
<path d="M22.0505 9C12.9977 11.9077 15.7638 23.7115 18.2785 29.25H26.3614C31.1034 15.1269 26.4555 10.0385 22.0505 9Z" stroke="#515151" stroke-width="2"/>
<path d="M16.8636 22.4998C15.3363 22.0177 13.1112 25.5113 14.3719 29.2498H30.0881C30.4383 26.9998 30.6135 23.5383 27.8952 22.4998" stroke="#515151" stroke-width="2"/>
<circle cx="22.0863" cy="18.1606" r="2.375" stroke="#515151" stroke-width="2"/>
<path d="M23.497 30.5999C23.497 30.7038 23.4216 31.0358 23.1916 31.6122C22.9812 32.139 22.6947 32.7444 22.3995 33.3275C22.2941 33.5357 22.1885 33.7391 22.0863 33.9328C21.984 33.7391 21.8784 33.5357 21.773 33.3275C21.4778 32.7444 21.1913 32.139 20.9809 31.6122C20.7509 31.0358 20.6755 30.7038 20.6755 30.5999C20.6755 29.9122 21.2683 29.2856 22.0863 29.2856C22.9042 29.2856 23.497 29.9122 23.497 30.5999Z" stroke="#515151" stroke-width="2"/>
</svg>
