<svg width="63" height="63" viewBox="0 0 63 63" fill="none" xmlns="http://www.w3.org/2000/svg">
<path d="M0.692911 27.7237L3.82699 34.4524C5.11851 37.1309 7.8309 38.8338 10.8063 38.8328H10.8073C11.0068 38.8309 11.1987 38.9093 11.3395 39.0506C11.4742 39.1827 11.5497 39.3639 11.5497 39.5528V55.4907C11.5545 59.6356 14.9141 62.9947 19.0608 63H43.944C48.0964 62.9947 51.4608 59.6308 51.4647 55.4802V39.5528C51.4666 39.1558 51.7878 38.8348 52.185 38.8328H52.1859C55.1777 38.8328 57.9045 37.1189 59.2013 34.4241L62.3214 27.7237H62.3229C63.9294 24.1762 62.5907 19.989 59.2239 18.03L58.5387 17.6407C57.5621 17.1524 56.6034 16.6305 55.6441 16.1085C54.4983 15.4851 53.3135 14.8411 52.1052 14.2586C50.1467 13.3151 48.1354 12.4231 46.1269 11.607C45.8058 11.4763 45.4826 11.3407 45.1557 11.2042C43.4723 10.4136 41.6946 9.8431 39.8655 9.50762C38.6966 9.40236 37.5181 9.52637 36.3963 9.87241C36.0241 9.96373 35.6505 10.0555 35.2712 10.1257C34.3754 10.2872 33.4699 10.3905 32.5612 10.4352L32.5684 8.26809C34.6999 7.71874 36.0434 5.61457 35.6428 3.45081C35.2543 1.31108 33.2964 -0.178375 31.1297 0.0172391C28.9626 0.212853 27.3037 2.02913 27.3047 4.20347C27.3047 4.78358 27.7749 5.25363 28.3553 5.25363C28.9352 5.25363 29.4055 4.78358 29.4055 4.20347C29.4059 3.57817 29.6843 2.98557 30.1657 2.58665C30.6474 2.18725 31.2817 2.02288 31.8962 2.13823C32.7439 2.30452 33.406 2.96682 33.5724 3.81368C33.7777 4.89845 33.1074 5.95678 32.039 6.23554C31.1167 6.45182 30.4623 7.2708 30.4561 8.21763V10.4703C29.2194 10.4641 27.9899 10.2824 26.8041 9.93057C24.9938 9.32691 23.0354 9.33364 21.2293 9.94883C15.4266 12.0117 9.81818 14.5844 4.46986 17.6364L3.68514 18.0848C0.36931 20.0607 -0.92125 24.2185 0.692911 27.7237ZM4.74971 19.8953L5.51231 19.4599C10.7448 16.4733 16.232 13.9553 21.9088 11.9357C23.2772 11.4705 24.7596 11.4647 26.1315 11.9199C27.8774 12.4216 29.6911 12.647 31.5062 12.5865H31.5077C32.8992 12.5812 34.2874 12.449 35.6549 12.1909C36.0732 12.1131 36.4857 12.0121 36.8959 11.9122C37.7609 11.6363 38.6707 11.5262 39.5765 11.5878C41.2244 11.904 42.826 12.4255 44.344 13.1402C44.6787 13.28 45.009 13.4189 45.336 13.5516C47.3036 14.3513 49.274 15.2256 51.1935 16.1498C52.3557 16.7093 53.5169 17.3413 54.6401 17.9526C55.6205 18.4857 56.601 19.0191 57.5468 19.4906L58.1603 19.841C60.6203 21.2305 61.6021 24.2733 60.4183 26.8374L57.3006 33.5311C56.3529 35.4911 54.366 36.7354 52.1883 36.7335H52.1831C50.6266 36.7359 49.3658 37.997 49.3644 39.5528V55.4802C49.3615 58.4716 46.9367 60.8963 43.944 60.9002H19.0608C16.0738 60.8963 13.6538 58.4764 13.6509 55.4907V39.5528C13.6528 38.8059 13.3552 38.0898 12.8244 37.564C12.2906 37.0291 11.5646 36.7301 10.8087 36.733H10.8039C8.64303 36.7364 6.67064 35.5031 5.72773 33.5599L2.5975 26.8389C1.43724 24.3142 2.36525 21.3218 4.74971 19.8953Z" fill="black"/>
</svg>
