<svg width="62" height="63" viewBox="0 0 62 63" fill="none" xmlns="http://www.w3.org/2000/svg">
<path d="M58.3213 44.8399L52.1408 44.1459L44.7399 36.6258C44.4329 36.3153 44.0654 36.074 43.6604 35.9164C43.6519 35.9125 43.6425 35.9116 43.6335 35.9082C43.2853 35.7722 42.9154 35.701 42.5422 35.6991H42.3663V32.549C42.3644 30.81 40.9779 29.4013 39.2665 29.3994H28.9329C27.222 29.4013 25.8351 30.81 25.8332 32.549V35.6991H25.6572C24.8323 35.6972 24.0409 36.0312 23.4595 36.6258L16.0497 44.155L13.4329 44.5102V20.9992H17.5666C19.2776 20.9973 20.6645 19.588 20.6664 17.8496V3.14964C20.6645 1.41068 19.2776 0.00192256 17.5666 0H3.09972C1.38832 0.00192256 0.00141906 1.41068 0 3.14964V17.8496C0.00141906 19.588 1.38832 20.9973 3.09972 20.9992H7.23299V45.3518L4.4852 45.7248C1.92047 46.0728 0.00331115 48.2943 0 50.9234V55.6486C0.000946033 56.8079 0.925705 57.7471 2.06664 57.7485H5.25954C5.75952 60.7794 8.34175 63 11.3663 63C14.3912 63 16.9735 60.7794 17.4734 57.7485H43.493C43.993 60.7794 46.5752 63 49.5997 63C52.6247 63 55.2065 60.7794 55.7069 57.7485H59.9329C61.0738 57.7471 61.9986 56.8079 62 55.6486V49.023C62.0024 46.8798 60.4177 45.0774 58.3213 44.8399ZM38.5357 41.6913C38.7297 41.8883 38.9922 41.9989 39.2665 41.9989C39.5404 41.9989 39.8034 41.8883 39.9969 41.6913L43.3998 38.2335L49.1716 44.0988H33.0666V37.799H40.9051L38.5357 40.2066C38.3418 40.4032 38.233 40.6704 38.233 40.9487C38.233 41.2275 38.3418 41.4942 38.5357 41.6913ZM27.8998 32.549C27.9003 31.9693 28.3624 31.4998 28.9329 31.4993H39.2665C39.837 31.4998 40.2991 31.9693 40.2996 32.549V35.6991H27.8998V32.549ZM3.09972 18.8993C2.52925 18.8988 2.06711 18.4292 2.06664 17.8496V3.14964C2.06711 2.56999 2.52925 2.1004 3.09972 2.09992H17.5666C18.1371 2.1004 18.5992 2.56999 18.5997 3.14964V17.8496C18.5992 18.4292 18.1371 18.8988 17.5666 18.8993H3.09972ZM11.3663 20.9992V44.7909L9.29962 45.0716V20.9992H11.3663ZM11.3663 60.8986C9.08345 60.8986 7.23299 59.0179 7.23299 56.6983C7.23299 54.3787 9.08345 52.4985 11.3663 52.4985C13.6491 52.4985 15.5 54.3787 15.5 56.6983C15.4972 59.0169 13.6481 60.8958 11.3663 60.8986ZM31 55.6486H17.4734C16.9735 52.6172 14.3912 50.3971 11.3663 50.3971C8.34175 50.3971 5.75952 52.6172 5.25954 55.6486H2.06664V50.9234C2.06805 49.3469 3.2175 48.0146 4.75577 47.8065L16.6017 46.1987H31V55.6486ZM31 44.0988H19.0278L24.9207 38.1105C25.1156 37.911 25.381 37.7986 25.6572 37.799H29.5384L27.169 40.2066C26.9008 40.47 26.7929 40.8607 26.8875 41.2275C26.9821 41.5947 27.2641 41.8816 27.6255 41.9777C27.9868 42.0734 28.3709 41.9643 28.6302 41.6913L31 39.2837V44.0988ZM49.5997 60.8986C47.3169 60.8986 45.4664 59.0179 45.4664 56.6983C45.4664 54.3787 47.3169 52.4985 49.5997 52.4985C51.8825 52.4985 53.733 54.3787 53.733 56.6983C53.7306 59.0169 51.8816 60.8958 49.5997 60.8986ZM59.9329 55.6486H55.7069C55.2065 52.6172 52.6247 50.3971 49.5997 50.3971C46.5752 50.3971 43.993 52.6172 43.493 55.6486H33.0666V46.1987H51.6077L58.0924 46.9278C59.142 47.0471 59.9353 47.9502 59.9329 49.023V55.6486Z" fill="black"/>
</svg>
