<svg width="63" height="63" viewBox="0 0 63 63" fill="none" xmlns="http://www.w3.org/2000/svg">
<path d="M62.9303 15.4059C62.877 15.3016 62.8236 15.1977 62.7698 15.0939L58.8001 10.1317V6.2999C59.9594 6.29846 60.8986 5.35927 60.9 4.19994V2.09997C60.8986 0.940636 59.9594 0.00144196 58.8001 0H4.19994C3.0406 0.00144196 2.10141 0.940636 2.09997 2.09997V4.19994C2.10141 5.35927 3.0406 6.29846 4.19994 6.2999V10.1317L0.230232 15.0939C0.20668 15.1324 0.186012 15.1723 0.168228 15.2136C0.128815 15.2742 0.0956497 15.3386 0.0696945 15.4059C0.0475846 15.4746 0.0331649 15.5462 0.0264359 15.6183C0.0149002 15.6616 0.00576782 15.7053 0 15.75V19.985C0.00336457 21.0934 0.866615 22.009 1.97356 22.0768C2.01778 22.0792 2.05671 22.0845 2.09997 22.0879V59.8498C2.10189 61.5888 3.51116 62.9981 5.25016 63H57.7498C59.4888 62.9981 60.8981 61.5888 60.9 59.8498V22.0874C60.9433 22.0845 60.9817 22.0792 61.026 22.0773C62.1329 22.0095 62.9971 21.0939 63 19.985V15.75C62.9942 15.7053 62.9851 15.6616 62.9736 15.6183C62.9668 15.5462 62.9524 15.4746 62.9303 15.4059ZM4.19994 2.09997H58.8001L58.8015 4.19994H4.19994V2.09997ZM56.7001 6.2999V9.4501H6.2999V6.2999H56.7001ZM58.8001 39.8999H48.3002V33.6H54.1651L51.7576 36.0076C51.4845 36.2714 51.3754 36.6617 51.4711 37.0289C51.5672 37.3957 51.8542 37.6826 52.2214 37.7788C52.5881 37.8749 52.9789 37.7653 53.2423 37.4923L57.1346 33.6H58.8001V39.8999ZM58.8001 31.5H48.3002C47.1409 31.5014 46.2012 32.4406 46.1998 33.6V39.8999C46.2012 41.0592 47.1409 41.9989 48.3002 41.9998H58.8001V59.8498C58.7996 60.4295 58.3295 60.8996 57.7498 60.9H44.0998V30.4498C44.1003 29.8701 44.5704 29.4005 45.15 29.4H58.8001V31.5ZM58.8001 27.3001H45.15C43.411 27.302 42.0018 28.7113 41.9998 30.4498V60.9H5.25016C4.67049 60.8996 4.20042 60.4295 4.19994 59.8498V22.4565C4.71664 22.6171 5.22421 22.805 5.72072 23.0199C7.4352 23.8091 9.30782 24.1955 11.1949 24.1499C13.0819 24.1955 14.9545 23.8091 16.67 23.0199C18.1316 22.3417 19.7308 22.0095 21.3419 22.0499C22.954 22.0095 24.5536 22.3417 26.0162 23.0199C27.7317 23.8091 29.6053 24.1955 31.4928 24.1499C33.3803 24.1955 35.2534 23.8091 36.9684 23.0199C38.4305 22.3417 40.0292 22.0095 41.6408 22.0499C43.2529 22.0095 44.853 22.3417 46.3166 23.0199C48.033 23.8091 49.907 24.1955 51.7955 24.1499C53.684 24.1955 55.5581 23.8091 57.2745 23.0199C57.7724 22.8045 58.2819 22.6161 58.8001 22.4556V27.3001ZM60.8976 19.9807C59.3663 20.0663 57.8652 20.4392 56.4718 21.0799C55.0082 21.7586 53.4081 22.0903 51.7955 22.0499C50.1829 22.0903 48.5828 21.7586 47.1193 21.0799C45.4029 20.2912 43.5293 19.9043 41.6408 19.9499C39.7533 19.9043 37.8807 20.2912 36.1657 21.0799C34.7035 21.7581 33.1044 22.0903 31.4933 22.0499C29.8812 22.0903 28.282 21.7581 26.8194 21.0799C25.1035 20.2907 23.2299 19.9043 21.3419 19.9499C19.4549 19.9043 17.5818 20.2912 15.8668 21.0799C14.4047 21.7586 12.8055 22.0903 11.1944 22.0499C9.58372 22.0903 7.98507 21.7586 6.52389 21.0799C5.13144 20.4388 3.63036 20.0672 2.09997 19.985V16.8002H46.1998C46.7799 16.8002 47.25 16.3297 47.25 15.75C47.25 15.1703 46.7799 14.6998 46.1998 14.6998H3.23479L5.75484 11.5501H57.2452L59.7652 14.6998H50.4002C49.82 14.6998 49.35 15.1703 49.35 15.75C49.35 16.3297 49.82 16.8002 50.4002 16.8002H60.9L60.8976 19.9807Z" fill="black"/>
</svg>
