<svg width="63" height="63" viewBox="0 0 63 63" fill="none" xmlns="http://www.w3.org/2000/svg">
<path d="M61.9503 51.7447V24.1592C61.9483 22.4206 60.5391 21.0117 58.8001 21.0098H48.3002V13.6613H50.3896C51.5518 13.6575 52.4915 12.7132 52.4896 11.5513C52.4896 0.338782 47.7864 0.0144163 47.25 0.0144163C46.6703 0.0144163 46.2003 0.484386 46.2003 1.0644V21.0098H38.12C42.2517 18.1208 44.0316 12.8857 42.5165 8.07791C41.0015 3.27009 36.542 0 31.5 0C26.458 0 21.9985 3.27009 20.4839 8.07791C18.9689 12.8857 20.7483 18.1208 24.88 21.0098H13.65V12.5056C16.0927 12.0039 17.8466 9.85591 17.85 7.36286V1.0644C17.85 0.484386 17.3799 0.0144163 16.8002 0.0144163C16.2201 0.0144163 15.75 0.484386 15.75 1.0644V5.26338H13.65V1.0644C13.65 0.484386 13.18 0.0144163 12.6003 0.0144163C12.0201 0.0144163 11.5501 0.484386 11.5501 1.0644V5.26338H9.4501V1.0644C9.4501 0.484386 8.98002 0.0144163 8.39987 0.0144163C7.82021 0.0144163 7.35013 0.484386 7.35013 1.0644V7.36286C7.35349 9.85591 9.10739 12.0039 11.5501 12.5056V21.0098H4.19994C2.46142 21.0117 1.05215 22.4206 1.05022 24.1592V51.7447C0.402786 52.1172 0.00240325 52.8058 0 53.5525V60.9005C0.00144195 62.0596 0.940636 62.999 2.09997 63H60.9C62.0594 62.999 62.9986 62.0596 63 60.9005V53.5525C62.9976 52.8058 62.5977 52.1172 61.9503 51.7447ZM48.3002 2.78042C49.2212 3.73093 50.3896 6.026 50.3896 11.5517L48.3002 11.5618V2.78042ZM22.0499 11.5618C22.0499 6.34411 26.2811 2.1139 31.5 2.1139C36.7194 2.1139 40.9501 6.34411 40.9501 11.5618C40.9501 16.78 36.7194 21.0098 31.5 21.0098C26.2835 21.004 22.0557 16.7776 22.0499 11.5618ZM31.5 23.1093C41.6317 23.1093 45.003 27.6999 45.982 29.6735C46.2589 30.2376 46.2714 30.8955 46.0162 31.4697C45.8028 31.9666 45.3745 32.3395 44.852 32.4813C44.6646 32.5322 44.4714 32.5577 44.2772 32.5572C43.1058 32.5678 42.1464 31.6288 42.133 30.4577C42.133 29.8777 41.6629 29.4077 41.0828 29.4077C40.5031 29.4077 40.033 29.8777 40.033 30.4577C40.0085 31.624 39.0554 32.5572 37.8883 32.5572C36.7213 32.5572 35.7687 31.624 35.7442 30.4577C35.7442 29.8777 35.2741 29.4077 34.6944 29.4077C34.1143 29.4077 33.6442 29.8777 33.6442 30.4577C33.6211 31.6249 32.668 32.5591 31.5 32.5591C30.332 32.5591 29.3789 31.6249 29.3558 30.4577C29.3558 29.8777 28.8857 29.4077 28.3061 29.4077C27.7259 29.4077 27.2558 29.8777 27.2558 30.4577C27.2313 31.624 26.2787 32.5572 25.1117 32.5572C23.9446 32.5572 22.992 31.624 22.9675 30.4577C22.9675 29.8777 22.4974 29.4077 21.9172 29.4077C21.3376 29.4077 20.8675 29.8777 20.8675 30.4577C20.8536 31.6288 19.8947 32.5678 18.7233 32.5572C18.5286 32.5572 18.3345 32.5317 18.1465 32.4813C17.625 32.339 17.1972 31.9661 16.9843 31.4697C16.7286 30.8955 16.7411 30.2376 17.018 29.6735C17.997 27.6999 21.3688 23.1093 31.5 23.1093ZM55.6499 34.6567L55.6518 47.2536H43.0501V34.6567H55.6499ZM19.9519 47.2536H7.35013V34.6567H19.9499L19.9519 47.2536ZM9.4501 7.36286H15.75C15.75 9.10242 14.3398 10.5123 12.6003 10.5123C10.8603 10.5123 9.4501 9.10242 9.4501 7.36286ZM24.1499 60.9005H2.09997V53.5525H24.1499V60.9005ZM36.7502 60.9005H26.2503V51.4531H36.7502V60.9005ZM36.7502 49.3531H31.935L34.3426 46.9461C34.7406 46.5342 34.7348 45.8797 34.3296 45.4746C33.9244 45.0695 33.2698 45.0643 32.8578 45.4617L28.9655 49.3531H26.2503V39.9056H32.1152L28.6579 43.3622C28.3849 43.626 28.2753 44.0162 28.3714 44.3833C28.4676 44.7505 28.754 45.0369 29.1213 45.133C29.4885 45.2291 29.8788 45.1195 30.1426 44.8466L35.0847 39.9056H36.7502V49.3531ZM36.7502 37.8062H26.2503C25.091 37.8071 24.1513 38.7466 24.1499 39.9056V51.4531H3.15019V24.1592C3.15067 23.5797 3.62027 23.1097 4.19994 23.1093H21.1179C18.5589 24.2775 16.4566 26.2568 15.1362 28.7407C14.5753 29.8662 14.5508 31.1848 15.0694 32.3309C15.1059 32.4121 15.1612 32.4793 15.2025 32.5572H7.35013C6.1908 32.5586 5.2516 33.4976 5.25016 34.6567V47.2536C5.2516 48.4127 6.1908 49.3521 7.35013 49.3531H19.9499C21.1093 49.3521 22.0489 48.4127 22.0499 47.2536V34.6567C22.0494 34.2247 21.9148 33.8037 21.6644 33.4515C21.7471 33.3722 21.8413 33.3049 21.9172 33.2194C22.7271 34.1334 23.8903 34.6567 25.1117 34.6567C26.333 34.6567 27.4962 34.1334 28.3061 33.2194C29.116 34.1334 30.2787 34.6567 31.5 34.6567C32.7213 34.6567 33.8845 34.1334 34.6944 33.2194C35.5043 34.1334 36.667 34.6567 37.8883 34.6567C39.1102 34.6567 40.2729 34.1334 41.0828 33.2194C41.1587 33.3054 41.2529 33.3722 41.3356 33.4515C41.0852 33.8037 40.9506 34.2247 40.9501 34.6567V47.2536C40.9515 48.4127 41.8907 49.3521 43.0501 49.3531H55.6499C56.8092 49.3521 57.7489 48.4127 57.7503 47.2536V34.6567C57.7489 33.4976 56.8092 32.5586 55.6499 32.5572H47.7979C47.8393 32.4793 47.8946 32.4121 47.9311 32.3309C48.4492 31.1848 48.4247 29.8662 47.8638 28.7402C46.5434 26.2568 44.4411 24.2775 41.8821 23.1093H58.8001C59.3797 23.1097 59.8498 23.5797 59.8503 24.1592V51.4531H38.8501V39.9056C38.8487 38.7466 37.9095 37.8071 36.7502 37.8062ZM60.9 60.9005H38.8501V53.5525H60.9V60.9005Z" fill="black"/>
</svg>
