<svg width="44" height="44" viewBox="0 0 44 44" fill="none" xmlns="http://www.w3.org/2000/svg">
<rect width="44" height="44" rx="20" fill="url(#paint0_linear)"/>
<path d="M16.0062 25.1905V14C16.0062 12.3431 17.3494 11 19.0062 11H24.6015H27.996C28.6772 11 29.3382 11.2318 29.8701 11.6574L31.4171 12.895L32.2037 13.6029C32.8358 14.1718 33.1968 14.9823 33.1968 15.8328V19.5953V25.1905C33.1968 26.8474 31.8536 28.1905 30.1968 28.1905H19.0062C17.3494 28.1905 16.0062 26.8474 16.0062 25.1905Z" stroke="white" stroke-width="2"/>
<path d="M26.0249 33.1968H14C12.3431 33.1968 11 31.8537 11 30.1968V18.1719C11 16.515 12.3431 15.1719 14 15.1719H20.0125H23.6156C24.2968 15.1719 24.9577 15.4037 25.4897 15.8293L27.1525 17.1596L28.0318 17.9509C28.664 18.5199 29.0249 19.3303 29.0249 20.1808V24.1843V30.1968C29.0249 31.8537 27.6818 33.1968 26.0249 33.1968Z" fill="#01B7F7" stroke="white" stroke-width="2"/>
<line x1="15.0062" y1="26.522" x2="25.0187" y2="26.522" stroke="white" stroke-width="2"/>
<line x1="15.0062" y1="23.1841" x2="21.6812" y2="23.1841" stroke="white" stroke-width="2"/>
<defs>
<linearGradient id="paint0_linear" x1="22" y1="0" x2="22" y2="44" gradientUnits="userSpaceOnUse">
<stop stop-color="#0198E1"/>
<stop offset="1" stop-color="#00C2FF"/>
</linearGradient>
</defs>
</svg>
