<svg width="17" height="15" viewBox="0 0 17 15" fill="none" xmlns="http://www.w3.org/2000/svg">
<path d="M11.7549 0H1.92246C0.862285 0 0 0.862285 0 1.92246V10.5387C0 10.9467 0.46149 11.1768 0.787246 10.9441L3.52551 8.99041C3.75527 8.82672 4.02555 8.74006 4.30777 8.74006H10.3305C11.3907 8.74006 12.2529 7.87778 12.2529 6.8176V0.498047C12.2529 0.223125 12.0298 0 11.7549 0V0ZM9.33572 6.03334H3.58129C3.30637 6.03334 3.08324 5.81055 3.08324 5.53529C3.08324 5.26037 3.30637 5.03725 3.58129 5.03725H9.33572C9.61064 5.03725 9.83377 5.26037 9.83377 5.53529C9.83377 5.81055 9.61064 6.03334 9.33572 6.03334ZM9.33572 3.70912H3.58129C3.30637 3.70912 3.08324 3.48633 3.08324 3.21107C3.08324 2.93615 3.30637 2.71303 3.58129 2.71303H9.33572C9.61064 2.71303 9.83377 2.93615 9.83377 3.21107C9.83377 3.48633 9.61064 3.70912 9.33572 3.70912Z" fill="#515151"/>
<path d="M17 5.78559V14.4015C17 14.8068 16.5408 15.0412 16.2127 14.8069L13.4745 12.8535C13.2447 12.6898 12.9744 12.6032 12.6922 12.6032H6.66947C5.60929 12.6032 4.74701 11.7406 4.74701 10.6804V9.73609H10.3304C11.9398 9.73609 13.249 8.42689 13.249 6.81754V3.86279H15.0775C16.1377 3.86279 17 4.72541 17 5.78559V5.78559Z" fill="#515151"/>
</svg>
