<svg width="28" height="25" viewBox="0 0 28 25" fill="none" xmlns="http://www.w3.org/2000/svg">
<path d="M23.5174 13.5639H20.935C20.5835 13.5639 20.2432 13.6119 19.9194 13.7002C19.2805 12.4444 17.9763 11.5815 16.4734 11.5815H11.9086C10.4057 11.5815 9.10143 12.4444 8.46259 13.7002C8.13875 13.6119 7.79846 13.5639 7.44699 13.5639H4.86455C2.73364 13.5639 1 15.2975 1 17.4285V21.5567C1 22.8353 2.04018 23.8754 3.31873 23.8754H25.0632C26.3418 23.8754 27.382 22.8353 27.382 21.5567V17.4285C27.382 15.2975 25.6483 13.5639 23.5174 13.5639ZM8.04404 15.4462V22.3297H3.31873C2.89255 22.3297 2.54582 21.983 2.54582 21.5568V17.4285C2.54582 16.15 3.586 15.1098 4.86455 15.1098H7.44699C7.65681 15.1098 7.85998 15.1383 8.05342 15.1908C8.04785 15.2753 8.04404 15.3604 8.04404 15.4462ZM18.7921 22.3297H9.58986V15.4461C9.58986 14.1676 10.63 13.1274 11.9086 13.1274H16.4734C17.7519 13.1274 18.7921 14.1676 18.7921 15.4461V22.3297ZM25.8362 21.5568C25.8362 21.983 25.4894 22.3297 25.0632 22.3297H20.3379V15.4461C20.3379 15.3602 20.3341 15.2752 20.3286 15.1907C20.522 15.1383 20.7252 15.1097 20.935 15.1097H23.5174C24.796 15.1097 25.8362 16.1499 25.8362 17.4285V21.5568Z" fill="#515151" stroke="#515151" stroke-width="0.5"/>
<path d="M5.22168 7C3.84316 7 2.72168 8.12149 2.72168 9.5C2.72164 10.8785 3.84316 12 5.22168 12C6.60016 12 7.72168 10.8785 7.72168 9.5C7.72168 8.12149 6.6002 7 5.22168 7ZM5.22164 10.8747C4.46364 10.8747 3.84699 10.258 3.84699 9.5C3.84699 8.742 4.46364 8.12535 5.22164 8.12535C5.97964 8.12535 6.59629 8.742 6.59629 9.5C6.59629 10.258 5.97964 10.8747 5.22164 10.8747Z" fill="#515151" stroke="#515151" stroke-width="0.5"/>
<path d="M14.1909 1C11.6611 1 9.60303 3.0581 9.60303 5.58789C9.60303 8.11767 11.6611 10.1758 14.1909 10.1758C16.7207 10.1758 18.7788 8.11767 18.7788 5.58789C18.7788 3.05815 16.7207 1 14.1909 1ZM14.1909 8.62995C12.5135 8.62995 11.1488 7.26531 11.1488 5.58789C11.1488 3.91052 12.5135 2.54582 14.1909 2.54582C15.8683 2.54582 17.233 3.91047 17.233 5.58789C17.233 7.26531 15.8683 8.62995 14.1909 8.62995Z" fill="#515151" stroke="#515151" stroke-width="0.5"/>
<path d="M23.1602 7C21.7817 7 20.6602 8.12149 20.6602 9.5C20.6602 10.8785 21.7817 12 23.1602 12C24.5387 12 25.6602 10.8785 25.6602 9.5C25.6602 8.12149 24.5387 7 23.1602 7ZM23.1602 10.8747C22.4022 10.8747 21.7855 10.258 21.7855 9.5C21.7855 8.742 22.4022 8.12535 23.1602 8.12535C23.9182 8.12535 24.5348 8.742 24.5348 9.5C24.5348 10.258 23.9182 10.8747 23.1602 10.8747Z" fill="#515151" stroke="#515151" stroke-width="0.5"/>
</svg>
