<svg width="26" height="19" viewBox="0 0 26 19" fill="none" xmlns="http://www.w3.org/2000/svg">
<path d="M3.10945 1H22.8906C24.0561 1 25 1.94978 25 3.10937V15.7656C25 16.9321 24.0491 17.8749 22.8906 17.8749H3.10945C1.95375 17.8749 1.00009 16.936 1.00009 15.7656V3.10937C1.00009 1.95184 1.94025 1 3.10945 1ZM3.40486 2.40624C3.83583 2.83492 11.2524 10.2125 11.5085 10.4672C11.9069 10.8656 12.4366 11.085 13 11.085C13.5635 11.085 14.0932 10.8656 14.4929 10.4659C14.6651 10.2945 21.9999 2.99846 22.5952 2.40624H3.40486ZM23.5938 15.4794V3.39648L17.517 9.44122L23.5938 15.4794ZM22.5943 16.4687L16.52 10.4329L15.486 11.4615C14.8219 12.1256 13.9391 12.4912 13 12.4912C12.061 12.4912 11.1782 12.1256 10.5154 11.4628L9.48012 10.4329L3.40575 16.4687H22.5943ZM2.40633 15.4794L8.48309 9.44122L2.40633 3.39648V15.4794Z" fill="#515151" stroke="#515151" stroke-width="0.5"/>
</svg>
