<svg width="23" height="25" viewBox="0 0 23 25" fill="none" xmlns="http://www.w3.org/2000/svg">
<path d="M11.5001 1C13.209 1 14.5994 2.39041 14.5994 4.09925V5.03435H12.9963V4.09925C12.9963 3.27422 12.3249 2.60305 11.5001 2.60305C10.6751 2.60305 10.0036 3.27418 10.0036 4.09925V5.03435H8.40059V4.09925C8.40059 2.39041 9.79123 1 11.5001 1Z" fill="#515151" stroke="#515151" stroke-width="0.5"/>
<path d="M9.30918 20.5303C9.30918 21.7237 10.2801 22.6947 11.4733 22.6947H11.5267C12.7199 22.6947 13.6909 21.7237 13.6909 20.5303H15.2939C15.2939 22.6078 13.604 24.2977 11.5267 24.2977H11.4733C9.39604 24.2977 7.70613 22.6078 7.70613 20.5303H9.30918Z" fill="#515151" stroke="#515151" stroke-width="0.5"/>
<path d="M1.12739 20.231L3.40453 16.6885V12.1415C3.40453 7.63336 7.03626 3.96582 11.5 3.96582C15.964 3.96582 19.5954 7.63336 19.5954 12.1415V16.6885L21.8726 20.2308C22.0313 20.4773 22.0425 20.791 21.902 21.0483C21.7615 21.3056 21.4918 21.4659 21.1985 21.4659H1.80144C1.50807 21.4659 1.23851 21.3056 1.09822 21.0486C0.957482 20.7913 0.968675 20.4777 1.12739 20.231ZM19.7304 19.8629L18.1198 17.3573C18.0368 17.2283 17.9924 17.0775 17.9924 16.9239V12.1415C17.9924 8.51745 15.0799 5.56891 11.5 5.56891C7.9198 5.56891 5.00758 8.5175 5.00758 12.1415V16.9239C5.00758 17.0775 4.96348 17.228 4.88039 17.3573L3.26984 19.8629H19.7304Z" fill="#515151" stroke="#515151" stroke-width="0.5"/>
</svg>
