<svg width="31" height="30" viewBox="0 0 31 30" fill="none" xmlns="http://www.w3.org/2000/svg">
<path d="M9.25977 14.9834V20.2334C9.25977 20.7164 9.65264 21.1084 10.1348 21.1084H14.5098V14.9834H9.25977Z" fill="#FF0000"/>
<path d="M21.5098 11.4832H18.7413C18.9399 11.3475 19.1105 11.2128 19.2295 11.092C19.9356 10.3824 19.9356 9.22741 19.2295 8.51778C18.5435 7.82653 17.3483 7.82828 16.6631 8.51778C16.2834 8.89841 15.2771 10.448 15.4163 11.4832H15.3533C15.4915 10.448 14.4853 8.89841 14.1064 8.51778C13.4204 7.82828 12.2251 7.82828 11.54 8.51778C10.8348 9.22741 10.8348 10.3824 11.5391 11.092C11.659 11.2128 11.8296 11.3475 12.0283 11.4832H9.25977C8.77764 11.4832 8.38477 11.876 8.38477 12.3582V13.6707C8.38477 13.9122 8.58077 14.1082 8.82227 14.1082H14.5098V12.3582H16.2598V14.1082H21.9473C22.1888 14.1082 22.3848 13.9122 22.3848 13.6707V12.3582C22.3848 11.876 21.9928 11.4832 21.5098 11.4832ZM14.4581 11.4543C14.4581 11.4543 14.4214 11.4832 14.2963 11.4832C13.6916 11.4832 12.5375 10.8549 12.1604 10.4752C11.7938 10.1059 11.7938 9.50391 12.1604 9.13466C12.338 8.95616 12.5734 8.85816 12.8236 8.85816C13.073 8.85816 13.3084 8.95616 13.486 9.13466C14.0758 9.72791 14.662 11.2434 14.4581 11.4543ZM16.4724 11.4832C16.3481 11.4832 16.3114 11.4552 16.3114 11.4543C16.1075 11.2434 16.6938 9.72791 17.2835 9.13466C17.6361 8.77853 18.253 8.77678 18.6091 9.13466C18.9766 9.50391 18.9766 10.1059 18.6091 10.4752C18.232 10.8549 17.0779 11.4832 16.4724 11.4832Z" fill="#FF0000"/>
<path d="M16.2598 14.9834V21.1084H20.6348C21.1178 21.1084 21.5098 20.7164 21.5098 20.2334V14.9834H16.2598Z" fill="#FF0000"/>
<circle cx="15.3848" cy="15" r="15" fill="#FF0000" fill-opacity="0.1"/>
</svg>
