<svg width="39" height="37" viewBox="0 0 39 37" fill="none" xmlns="http://www.w3.org/2000/svg">
<path d="M2.4375 19.6953V34.3203C2.4375 35.6658 3.53194 36.7578 4.875 36.7578H17.0625V19.6953H2.4375Z" fill="#FF0000"/>
<path d="M36.5625 9.94527H28.8503C29.4036 9.56745 29.8789 9.19208 30.2104 8.8557C32.1774 6.87889 32.1774 3.66139 30.2104 1.68458C28.2994 -0.241046 24.9698 -0.236171 23.0612 1.68458C22.0033 2.74489 19.2002 7.0617 19.5878 9.94527H19.4123C19.7974 7.0617 16.9943 2.74489 15.9388 1.68458C14.0278 -0.236171 10.6982 -0.236171 8.78962 1.68458C6.825 3.66139 6.825 6.87889 8.78719 8.8557C9.12113 9.19208 9.59644 9.56745 10.1498 9.94527H2.4375C1.09444 9.94527 0 11.0397 0 12.3828V16.039C0 16.7118 0.546 17.2578 1.21875 17.2578H17.0625V12.3828H21.9375V17.2578H37.7812C38.454 17.2578 39 16.7118 39 16.039V12.3828C39 11.0397 37.908 9.94527 36.5625 9.94527ZM16.9187 9.86483C16.9187 9.86483 16.8163 9.94527 16.4678 9.94527C14.7834 9.94527 11.5684 8.19514 10.5178 7.13727C9.4965 6.10864 9.4965 4.43164 10.5178 3.40302C11.0126 2.90577 11.6683 2.63277 12.3654 2.63277C13.0601 2.63277 13.7158 2.90577 14.2106 3.40302C15.8535 5.05564 17.4866 9.27739 16.9187 9.86483ZM22.5298 9.94527C22.1837 9.94527 22.0813 9.86727 22.0813 9.86483C21.5134 9.27739 23.1465 5.05564 24.7894 3.40302C25.7717 2.41095 27.4901 2.40608 28.4822 3.40302C29.5059 4.43164 29.5059 6.10864 28.4822 7.13727C27.4316 8.19514 24.2166 9.94527 22.5298 9.94527Z" fill="#FF0000"/>
<path d="M21.9375 19.6953V36.7578H34.125C35.4705 36.7578 36.5625 35.6658 36.5625 34.3203V19.6953H21.9375Z" fill="#FF0000"/>
</svg>
