<svg width="44" height="44" viewBox="0 0 44 44" fill="none" xmlns="http://www.w3.org/2000/svg">
<path d="M28.6078 24.7777C28.0683 24.7777 27.6323 25.2137 27.6323 25.7531V28.8172C27.6323 29.3557 27.1953 29.7926 26.6568 29.7926H15.9264C15.388 29.7926 14.951 29.3556 14.951 28.8172V16.1359C14.951 15.5974 15.388 15.1604 15.9264 15.1604H21.594C22.1334 15.1604 22.5695 14.7244 22.5695 14.1849C22.5695 13.6455 22.1334 13.2095 21.594 13.2095H15.9264C14.313 13.2094 13 14.5224 13 16.1359V28.8172C13 30.4306 14.313 31.7436 15.9264 31.7436H26.6568C28.2702 31.7436 29.5832 30.4316 29.5832 28.8172V25.7532C29.5832 25.2137 29.1472 24.7777 28.6078 24.7777Z" fill="#515151" stroke="#515151" stroke-width="0.2"/>
<path d="M31.9897 13.0856C31.2815 12.3775 30.3567 12.0204 29.4251 12.0009C28.4447 11.9795 27.4585 12.3345 26.7172 13.0769L20.1131 19.6809C19.1493 20.6486 18.6187 21.9323 18.6187 23.296V25.4811C18.6187 26.0205 19.0547 26.4566 19.5941 26.4566H21.7792C23.1429 26.4566 24.4267 25.9259 25.3953 24.9611L31.9906 18.3659C33.4441 16.9115 33.4441 14.5411 31.9897 13.0856ZM24.017 23.5809C23.419 24.1769 22.623 24.5057 21.7793 24.5057H20.5696V23.2961C20.5696 22.4523 20.8984 21.6563 21.4934 21.0593L25.847 16.7057L28.3696 19.2283L24.017 23.5809ZM30.6103 16.9876L29.7489 17.849L27.2263 15.3264L28.0877 14.465C28.7842 13.7685 29.9157 13.7705 30.6103 14.465C31.3049 15.1605 31.3049 16.2921 30.6103 16.9876Z" fill="#515151" stroke="#515151" stroke-width="0.2"/>
</svg>
