<svg width="20" height="20" viewBox="0 0 20 20" fill="none" xmlns="http://www.w3.org/2000/svg">
<path d="M14.149 16.6906C13.288 17.3945 12.1794 17.7237 11.0668 17.6059L9.32674 17.4181C8.40428 17.3178 7.55526 16.854 6.9671 16.1292L1.22098 9.07986C0.975549 8.77876 1.01775 8.3381 1.31524 8.09561C1.9342 7.59507 2.83075 7.62842 3.42331 8.17398L6.04203 10.5947L6.81967 2.47446C6.89578 1.79616 7.50676 1.3146 8.18436 1.3989C8.84645 1.48125 9.33014 2.07463 9.27731 2.73974L8.85315 7.16895C8.92926 6.49065 9.54023 6.00909 10.2178 6.09339C10.8799 6.17574 11.3636 6.76912 11.3108 7.43422L11.2637 7.92637C11.3398 7.24807 11.9507 6.76651 12.6283 6.85081C13.2904 6.93316 13.7741 7.52654 13.7213 8.19165L13.6742 8.6838C13.7046 8.36455 13.8573 8.07096 14.1003 7.86462L14.1056 7.86024C14.3591 7.64695 14.6897 7.5479 15.0208 7.58611C15.6994 7.65945 16.1968 8.26962 16.1318 8.94907L15.6615 13.8606C15.5545 14.9722 15.0103 15.9904 14.149 16.6906Z" fill="white"/>
</svg>
