<svg width="13" height="12" viewBox="0 0 13 12" fill="none" xmlns="http://www.w3.org/2000/svg">
<path d="M11.7549 0.0500488H1.92246C0.862285 0.0500488 0 0.912334 0 1.97251V10.5887C0 10.9968 0.46149 11.2268 0.787246 10.9941L3.52551 9.04046C3.75527 8.87677 4.02555 8.79011 4.30777 8.79011H10.3305C11.3907 8.79011 12.2529 7.92782 12.2529 6.86765V0.548096C12.2529 0.273174 12.0298 0.0500488 11.7549 0.0500488ZM9.33572 6.08339H3.58129C3.30637 6.08339 3.08324 5.8606 3.08324 5.58534C3.08324 5.31042 3.30637 5.0873 3.58129 5.0873H9.33572C9.61065 5.0873 9.83377 5.31042 9.83377 5.58534C9.83377 5.8606 9.61065 6.08339 9.33572 6.08339ZM9.33572 3.75917H3.58129C3.30637 3.75917 3.08324 3.53638 3.08324 3.26112C3.08324 2.9862 3.30637 2.76308 3.58129 2.76308H9.33572C9.61065 2.76308 9.83377 2.9862 9.83377 3.26112C9.83377 3.53638 9.61065 3.75917 9.33572 3.75917Z" fill="white"/>
</svg>
