<svg width="125" height="104" viewBox="0 0 125 104" fill="none" xmlns="http://www.w3.org/2000/svg">
<path d="M70.5119 90C69.8811 90 69.2503 89.7779 68.7629 89.33C67.7669 88.4167 67.743 86.9136 68.7098 85.9726L95.6833 59.7207C96.6501 58.7798 98.2411 58.7572 99.2371 59.6706C100.233 60.5839 100.257 62.087 99.2902 63.0279L72.3154 89.2798C71.8227 89.7591 71.168 90 70.5119 90Z" fill="#FFAA00"/>
<path d="M56.4998 86.5586C73.5682 86.5586 87.4048 73.1079 87.4048 56.5156C87.4048 39.9234 73.5682 26.4727 56.4998 26.4727C39.4314 26.4727 25.5947 39.9234 25.5947 56.5156C25.5947 73.1079 39.4314 86.5586 56.4998 86.5586Z" fill="#21AA47"/>
<path d="M56.5 89.0813C38.0296 89.0813 23 74.4735 23 56.5158C23 38.5606 38.0296 23.9502 56.5 23.9502C74.973 23.9502 90 38.5606 90 56.5158C90 74.4735 74.973 89.0813 56.5 89.0813ZM56.5 28.9952C40.8891 28.9952 28.1898 41.3403 28.1898 56.5158C28.1898 71.6912 40.8891 84.0363 56.5 84.0363C72.1109 84.0363 84.8102 71.6886 84.8102 56.5158C84.8102 41.3403 72.1109 28.9952 56.5 28.9952Z" fill="#21AA47"/>
<path d="M52.3818 68.9976C51.6743 68.9976 50.9984 68.7272 50.4994 68.2422L40.7575 58.7687C39.7358 57.7734 39.7489 56.1768 40.7892 55.1966C41.8294 54.2215 43.5005 54.2316 44.5222 55.2269L52.3053 62.7956L68.4072 45.8267C69.3919 44.7935 71.0606 44.7202 72.135 45.655C73.2148 46.5922 73.294 48.1888 72.3145 49.2245L54.3355 68.1714C53.8472 68.6867 53.1607 68.9848 52.4347 69C52.4162 68.9976 52.4003 68.9976 52.3818 68.9976Z" fill="white"/>
<path d="M48.4657 17C47.8478 17 47.2273 16.7706 46.7489 16.3106C45.7712 15.3725 45.7477 13.8288 46.6967 12.8637L49.7641 9.74023C50.7131 8.77381 52.2735 8.75062 53.2511 9.68869C54.2288 10.6268 54.2523 12.1705 53.3033 13.1369L50.2359 16.2604C49.7523 16.7526 49.1097 17 48.4657 17Z" fill="#FF4E61"/>
<path d="M70.4657 104C69.8478 104 69.2273 103.771 68.7489 103.311C67.7712 102.373 67.7477 100.829 68.6967 99.8637L71.7641 96.7402C72.7131 95.7738 74.2735 95.7506 75.2511 96.6887C76.2288 97.6268 76.2523 99.1705 75.3033 100.137L72.2359 103.26C71.7523 103.753 71.1097 104 70.4657 104Z" fill="#FF4E61"/>
<path d="M91.4666 32C90.8475 32 90.2284 31.7719 89.7487 31.3118C88.7712 30.3736 88.7477 28.8297 89.6966 27.8631L92.7634 24.7392C93.7123 23.7739 95.2737 23.7507 96.2513 24.6889C97.2288 25.6259 97.2523 27.1711 96.3034 28.1363L93.2366 31.2603C92.753 31.7526 92.1104 32 91.4666 32Z" fill="#5C73BC"/>
<path d="M102.466 78C101.848 78 101.227 77.8004 100.749 77.3978C99.7712 76.5769 99.7477 75.226 100.697 74.3802L103.764 71.6468C104.713 70.8022 106.275 70.7819 107.252 71.6028C108.229 72.4238 108.252 73.7747 107.303 74.6193L104.236 77.3527C103.752 77.7835 103.11 78 102.466 78Z" fill="#FFAA00"/>
<path d="M20.4657 91C19.8478 91 19.2273 90.7434 18.7489 90.2259C17.7712 89.1706 17.7477 87.4339 18.6967 86.3467L21.7627 82.8328C22.7118 81.7455 24.2735 81.7194 25.2511 82.7748C26.2288 83.8301 26.2523 85.5668 25.3033 86.654L22.2359 90.1679C21.7536 90.7217 21.1097 91 20.4657 91Z" fill="#2DC471"/>
<path d="M94.4657 98C93.8478 98 93.2273 97.7434 92.7489 97.2259C91.7712 96.1706 91.7477 94.4339 92.6967 93.3467L95.7627 89.8328C96.7118 88.7455 98.2735 88.7194 99.2511 89.7748C100.229 90.8301 100.252 92.5668 99.3033 93.654L96.2359 97.1679C95.7536 97.7217 95.1097 98 94.4657 98Z" fill="#2DC471"/>
<path d="M40.5197 96H40.4816C39.1117 96 38 94.8798 38 93.4993C38 92.1189 39.1104 91 40.4816 91H40.5197C41.8896 91 43 92.1189 43 93.4993C43 94.8798 41.8896 96 40.5197 96Z" fill="#5C73BC"/>
<path d="M54.5197 81C54.5157 81 54.5118 81 54.5092 81H54.4698C53.0999 80.9958 51.9948 80.0962 52 78.9915C52.0066 77.889 53.1156 77 54.4803 77H54.4921H54.5302C55.9001 77.0042 57.0052 77.9038 57 79.0085C56.9947 80.1099 55.8844 81 54.5197 81Z" fill="#FFAA00"/>
<path d="M19.4863 58C18.8596 58 18.2329 57.7648 17.7494 57.2919C16.7666 56.3328 16.7482 54.759 17.7074 53.7763L17.7349 53.7487C18.694 52.7673 20.268 52.7476 21.2508 53.708C22.2335 54.667 22.2519 56.2409 21.2915 57.2236L21.2652 57.2512C20.7778 57.7491 20.1327 58 19.4863 58V58Z" fill="#FFAA00"/>
<path d="M24.9885 64C24.4892 64 23.9898 63.7662 23.603 63.2972C22.8156 62.3408 22.7967 60.7669 23.562 59.7829L23.583 59.754C24.3493 58.7687 25.6087 58.7464 26.3961 59.7028C27.1845 60.6592 27.2035 62.233 26.4382 63.2183L26.4161 63.2459C26.0261 63.7478 25.5078 64 24.9885 64V64Z" fill="#5C73BC"/>
<path d="M89.5135 57C88.8696 57 88.2271 56.7517 87.7409 56.2564L87.7133 56.2288C86.7501 55.2487 86.7646 53.6748 87.7435 52.7131C88.7237 51.7502 90.2979 51.7646 91.2598 52.7434L91.2874 52.771C92.2492 53.751 92.2361 55.3249 91.2558 56.2866C90.7723 56.7622 90.1429 57 89.5135 57Z" fill="#FF4E61"/>
<path d="M84.011 63C83.4917 63 82.9735 62.7477 82.5835 62.2458L82.5614 62.2183C81.7972 61.2329 81.8151 59.6589 82.6035 58.7024C83.3919 57.7459 84.6512 57.7695 85.4165 58.7536L85.4386 58.7812C86.2028 59.7666 86.1849 61.3406 85.3965 62.2971C85.0097 62.7661 84.5104 63 84.011 63Z" fill="#FFAA00"/>
<path d="M74.5141 23C74.0797 23 73.6414 22.8868 73.2412 22.6473L73.2084 22.6276C72.0326 21.9222 71.6481 20.3931 72.3528 19.2127C73.0562 18.031 74.581 17.6481 75.7581 18.3534L75.7909 18.3732C76.9681 19.0785 77.3513 20.6076 76.6479 21.788C76.182 22.5684 75.3592 23 74.5141 23Z" fill="#FFAA00"/>
<path d="M70.514 30C70.077 30 69.6347 29.8842 69.2344 29.6421L69.2016 29.6224C68.0271 28.9118 67.6491 27.3815 68.3565 26.2038C69.0651 25.0262 70.5914 24.6485 71.7659 25.3578L71.7988 25.3775C72.9733 26.0881 73.3513 27.6184 72.6426 28.796C72.1767 29.571 71.3552 30 70.514 30V30Z" fill="#2DC471"/>
<path d="M34.4858 23C33.6434 23 32.8206 22.5697 32.3548 21.7933C31.6488 20.6142 32.0294 19.0838 33.2038 18.3758L33.2379 18.3561C34.4136 17.6481 35.9384 18.0284 36.6443 19.2075C37.3516 20.3866 36.9711 21.9157 35.7953 22.625L35.7625 22.6447C35.3623 22.8855 34.9214 23 34.4858 23Z" fill="#FF4E61"/>
<path d="M14.4859 41C13.6461 41 12.8272 40.5737 12.3601 39.8C11.6488 38.6236 12.0241 37.0933 13.196 36.3802L13.2288 36.3604C14.4032 35.6486 15.9293 36.0236 16.6406 37.1999C17.3505 38.3763 16.9765 39.9066 15.8034 40.6197L15.7706 40.6395C15.3677 40.8842 14.9242 41 14.4859 41Z" fill="#FFAA00"/>
<path d="M93 6.49938C93 2.90987 90.0892 0 86.5 0C82.9095 0 80 2.90987 80 6.49938C80 10.0889 82.9095 13 86.5 13C90.0892 13 93 10.0889 93 6.49938Z" fill="#FFD02F"/>
<path d="M11 67.4993C11 64.4619 8.538 62 5.49932 62C2.462 62 0 64.4619 0 67.4993C0 70.5368 2.462 73 5.49932 73C8.538 73 11 70.5368 11 67.4993Z" fill="#5C73BC"/>
<path d="M125 53.4993C125 50.4619 122.538 48 119.499 48C116.462 48 114 50.4619 114 53.4993C114 56.5368 116.462 59 119.499 59C122.538 59 125 56.5368 125 53.4993Z" fill="#5C73BC"/>
</svg>
