<svg width="44" height="30" viewBox="0 0 44 30" fill="none" xmlns="http://www.w3.org/2000/svg">
<path d="M40.9091 0H15C14.6373 0 14.2909 0.144545 14.0345 0.398182L12.2727 2.16273L10.5109 0.398182C10.2545 0.144545 9.90818 0 9.54545 0H2.72727C1.22455 0 0 1.22455 0 2.72727V27.2727C0 28.7782 1.22455 30 2.72727 30H9.54545C9.90818 30 10.2545 29.8555 10.5109 29.6018L12.2727 27.8373L14.0345 29.5991C14.2909 29.8555 14.6373 30 15 30H40.9091C42.4145 30 43.6364 28.7782 43.6364 27.2727V2.72727C43.6364 1.22455 42.4145 0 40.9091 0ZM13.6364 24.5455H10.9091V21.8182H13.6364V24.5455ZM13.6364 19.0909H10.9091V16.3636H13.6364V19.0909ZM13.6364 13.6364H10.9091V10.9091H13.6364V13.6364ZM13.6364 8.18182H10.9091V5.45455H13.6364V8.18182ZM23.1818 5.45455C25.4373 5.45455 27.2727 7.29 27.2727 9.54545C27.2727 11.8009 25.4373 13.6364 23.1818 13.6364C20.9264 13.6364 19.0909 11.8009 19.0909 9.54545C19.0909 7.29 20.9264 5.45455 23.1818 5.45455ZM20.4545 24.5455C20.1464 24.5455 19.8382 24.4418 19.5818 24.2291C19.0036 23.7464 18.9245 22.8873 19.4073 22.3091L33.0436 5.94545C33.5291 5.36455 34.3882 5.29364 34.9636 5.77091C35.5418 6.25364 35.6182 7.11273 35.1355 7.69364L21.4991 24.0573C21.2318 24.3764 20.8445 24.5455 20.4545 24.5455ZM31.3636 24.5455C29.1082 24.5455 27.2727 22.71 27.2727 20.4545C27.2727 18.1991 29.1082 16.3636 31.3636 16.3636C33.6191 16.3636 35.4545 18.1991 35.4545 20.4545C35.4545 22.71 33.6191 24.5455 31.3636 24.5455Z" fill="#00C938"/>
</svg>
