<svg width="16" height="15" viewBox="0 0 16 15" fill="none" xmlns="http://www.w3.org/2000/svg">
<path d="M14.6915 1.39764C13.864 0.508103 12.7043 0.00196948 11.4893 9.31749e-05C10.2734 0.0015004 9.11252 0.507366 8.28366 1.39707L8.00117 1.69557L7.71869 1.39707C6.07401 -0.373057 3.30572 -0.474713 1.53562 1.16997C1.45719 1.24288 1.38143 1.3186 1.30852 1.39707C-0.436174 3.27894 -0.436174 6.18728 1.30852 8.06915L7.58604 14.6892C7.80322 14.9185 8.16515 14.9283 8.39443 14.7111C8.40193 14.704 8.40924 14.6967 8.41634 14.6892L14.6916 8.06915C16.4361 6.18748 16.4361 3.27931 14.6915 1.39764Z" fill="#EF5DA8"/>
</svg>
